HIERARCHY
ROOT hip
{
  OFFSET 0 0 0
  CHANNELS 6 Xposition Yposition Zposition Zrotation Yrotation Xrotation
  JOINT abdomen
  {
    OFFSET 0 20.6881 -0.73152
    CHANNELS 3 Zrotation Xrotation Yrotation
    JOINT chest
    {
      OFFSET 0 11.7043 -0.48768
      CHANNELS 3 Zrotation Xrotation Yrotation
      JOINT neck
      {
        OFFSET 0 22.1894 -2.19456
        CHANNELS 3 Zrotation Xrotation Yrotation
        JOINT head
        {
          OFFSET -0.24384 7.07133 1.2192
          CHANNELS 3 Zrotation Xrotation Yrotation
          JOINT leftEye
          {
            OFFSET 4.14528 8.04674 8.04672
            CHANNELS 3 Zrotation Xrotation Yrotation
            End Site
            {
              OFFSET 1 0 0
            }
          }
          JOINT rightEye
          {
            OFFSET -3.6576 8.04674 8.04672
            CHANNELS 3 Zrotation Xrotation Yrotation
            End Site
            {
              OFFSET 1 0 0
            }
          }
        }
      }
      JOINT rCollar
      {
        OFFSET -2.68224 19.2634 -4.8768
        CHANNELS 3 Zrotation Xrotation Yrotation
        JOINT rShldr
        {
          OFFSET -8.77824 -1.95073 1.46304
          CHANNELS 3 Zrotation Xrotation Yrotation
          JOINT rForeArm
          {
            OFFSET -28.1742 -1.7115 0.48768
            CHANNELS 3 Zrotation Xrotation Yrotation
            JOINT rHand
            {
              OFFSET -22.5879 0.773209 7.07136
              CHANNELS 3 Zrotation Xrotation Yrotation
              JOINT rThumb1
              {
                OFFSET -1.2192 -0.487915 3.41376
                CHANNELS 3 Zrotation Xrotation Yrotation
                JOINT rThumb2
                {
                  OFFSET -3.37035 -0.52449 3.41376
                  CHANNELS 3 Zrotation Xrotation Yrotation
                  End Site
                  {
                    OFFSET -1.78271 -1.18214 1.43049
                  }
                }
              }
              JOINT rIndex1
              {
                OFFSET -7.75947 0.938293 5.60832
                CHANNELS 3 Zrotation Xrotation Yrotation
                JOINT rIndex2
                {
                  OFFSET -2.54057 -0.884171 1.56538
                  CHANNELS 3 Zrotation Xrotation Yrotation
                  End Site
                  {
                    OFFSET -1.62519 -0.234802 1.16502
                  }
                }
              }
              JOINT rMid1
              {
                OFFSET -8.24714 1.18213 3.41376
                CHANNELS 3 Zrotation Xrotation Yrotation
                JOINT rMid2
                {
                  OFFSET -3.10165 -0.590103 1.0647
                  CHANNELS 3 Zrotation Xrotation Yrotation
                  End Site
                  {
                    OFFSET -2.48547 -0.328903 0.83742
                  }
                }
              }
              JOINT rRing1
              {
                OFFSET -8.82822 0.546677 1.51678
                CHANNELS 3 Zrotation Xrotation Yrotation
                JOINT rRing2
                {
                  OFFSET -2.60934 -0.819778 -0.0198488
                  CHANNELS 3 Zrotation Xrotation Yrotation
                  End Site
                  {
                    OFFSET -2.33842 -0.294052 0.168128
                  }
                }
              }
              JOINT rPinky1
              {
                OFFSET -8.27202 -0.0477905 -0.4584
                CHANNELS 3 Zrotation Xrotation Yrotation
                JOINT rPinky2
                {
                  OFFSET -1.82734 -0.647385 -0.700984
                  CHANNELS 3 Zrotation Xrotation Yrotation
                  End Site
                  {
                    OFFSET -1.69225 -0.51767 -0.607171
                  }
                }
              }
            }
          }
        }
      }
      JOINT lCollar
      {
        OFFSET 2.68224 19.2634 -4.8768
        CHANNELS 3 Zrotation Xrotation Yrotation
        JOINT lShldr
        {
          OFFSET 8.77824 -1.95073 1.46304
          CHANNELS 3 Zrotation Xrotation Yrotation
          JOINT lForeArm
          {
            OFFSET 28.1742 -1.7115 0.48768
            CHANNELS 3 Zrotation Xrotation Yrotation
            JOINT lHand
            {
              OFFSET 22.5879 0.773209 7.07136
              CHANNELS 3 Zrotation Xrotation Yrotation
              JOINT lThumb1
              {
                OFFSET 1.2192 -0.487915 3.41376
                CHANNELS 3 Zrotation Xrotation Yrotation
                JOINT lThumb2
                {
                  OFFSET 3.37035 -0.52449 3.41376
                  CHANNELS 3 Zrotation Xrotation Yrotation
                  End Site
                  {
                    OFFSET 1.78271 -1.18214 1.43049
                  }
                }
              }
              JOINT lIndex1
              {
                OFFSET 7.75947 0.938293 5.60832
                CHANNELS 3 Zrotation Xrotation Yrotation
                JOINT lIndex2
                {
                  OFFSET 2.54057 -0.884171 1.56538
                  CHANNELS 3 Zrotation Xrotation Yrotation
                  End Site
                  {
                    OFFSET 1.62519 -0.234802 1.16502
                  }
                }
              }
              JOINT lMid1
              {
                OFFSET 8.24714 1.18213 3.41376
                CHANNELS 3 Zrotation Xrotation Yrotation
                JOINT lMid2
                {
                  OFFSET 3.10165 -0.590103 1.0647
                  CHANNELS 3 Zrotation Xrotation Yrotation
                  End Site
                  {
                    OFFSET 2.48547 -0.328903 0.83742
                  }
                }
              }
              JOINT lRing1
              {
                OFFSET 8.82822 0.546677 1.51678
                CHANNELS 3 Zrotation Xrotation Yrotation
                JOINT lRing2
                {
                  OFFSET 2.60934 -0.819778 -0.0198488
                  CHANNELS 3 Zrotation Xrotation Yrotation
                  End Site
                  {
                    OFFSET 2.33842 -0.294052 0.168128
                  }
                }
              }
              JOINT lPinky1
              {
                OFFSET 8.27202 -0.0477905 -0.4584
                CHANNELS 3 Zrotation Xrotation Yrotation
                JOINT lPinky2
                {
                  OFFSET 1.82734 -0.647385 -0.700984
                  CHANNELS 3 Zrotation Xrotation Yrotation
                  End Site
                  {
                    OFFSET 1.69225 -0.51767 -0.607171
                  }
                }
              }
            }
          }
        }
      }
    }
  }
  JOINT rButtock
  {
    OFFSET -8.77824 4.35084 1.2192
    CHANNELS 3 Zrotation Xrotation Yrotation
    JOINT rThigh
    {
      OFFSET 0 -1.70687 -2.19456
      CHANNELS 3 Zrotation Xrotation Yrotation
      JOINT rShin
      {
        OFFSET 0 -36.8199 0.73152
        CHANNELS 3 Zrotation Xrotation Yrotation
        JOINT rFoot
        {
          OFFSET 0.73152 -45.1104 -5.12064
          CHANNELS 3 Zrotation Xrotation Yrotation
          End Site
          {
            OFFSET -1.1221 -3.69964 12.103
          }
        }
      }
    }
  }
  JOINT lButtock
  {
    OFFSET 8.77824 4.35084 1.2192
    CHANNELS 3 Zrotation Xrotation Yrotation
    JOINT lThigh
    {
      OFFSET 0 -1.70687 -2.19456
      CHANNELS 3 Zrotation Xrotation Yrotation
      JOINT lShin
      {
        OFFSET 0 -36.8199 0.73152
        CHANNELS 3 Zrotation Xrotation Yrotation
        JOINT lFoot
        {
          OFFSET -0.73152 -45.1104 -5.12064
          CHANNELS 3 Zrotation Xrotation Yrotation
          End Site
          {
            OFFSET 1.1221 -3.69964 12.103
          }
        }
      }
    }
  }
}
MOTION
Frames:	8
Frame Time:	0.03333
44.915699999999994 69.7692 34.8192 171.100663 74.688105 168.30725 -6.684811 9.796929 -113.196324 5.958945 2.19686 116.39948 -18.020386 26.440946 -87.693243 37.805301 16.786188 54.518436 1.739843 -0.332728 -21.651496 27.806723 -4.332422 -17.376031 -159.721569 -23.799415 161.120605 -95.404164 -32.807638 -149.991955 91.284487 -40.3399 -170.59143 -146.751015 79.058728 125.461914 6.14373 -17.984982 -6.158874 -171.576406 -71.05045 109.429253 -8.640849 11.442142 0.754288 -161.823171 -31.167795 110.342187 -14.253582 19.200918 13.369971 -151.273473 -5.631075 149.215402 -148.108103 -3.676455 -173.780707 43.952599 69.446381 -26.986674 -155.279277 16.411638 -154.622578 0.693866 46.4133 7.107642 18.151525 53.582171 -19.549482 -66.821427 30.783085 -28.662131 -175.83845 34.448073 -43.415957 149.772753 34.233175 -130.277375 164.522393 -7.05709 -96.15934 51.942278 5.361377 -22.13027 161.867159 -28.438813 -132.198533 7.954769 56.69192 6.713496 3.305331 15.980702 2.221439 163.653618 13.301046 -129.192349 151.387474 0.75309 -170.769698 -15.389889 4.184424 -0.652307 147.600616 13.34872 137.44246 -7.256888 -7.049294 0.13228 23.197391 0.304983 12.948947 -65.731014 -38.480104 -89.150577 -65.448792 33.597468 -38.662361 -37.454288 77.395387 123.14298 -0.158288 -2.20105 -1.330925 7.313362 -0.694593 84.146797 62.369517 5.908216 88.974784 142.437786 42.788346 130.037573
44.9701 70.0905 35.969899999999996 170.392051 74.554219 168.289656 -6.779018 9.9194 -106.461107 6.553141 1.589027 109.505233 -7.757629 34.394976 -163.693506 5.640318 45.307767 132.03367 4.291578 -0.718436 -18.998577 23.905367 -3.623915 -16.998599 -163.861292 -47.536017 164.060715 -101.042355 -41.072551 -173.58175 -142.49216 -38.523568 -66.185918 3.46671 19.709492 -3.212941 -3.679145 -6.734707 -5.960417 -145.507206 -44.575772 109.688999 -153.326926 -17.802982 125.33498 -21.620546 29.866643 0.79754 -154.552779 8.973924 129.469551 -169.954766 -8.819099 128.513093 -4.720447 -0.364259 -3.066925 111.044736 -82.45153 93.8987 -153.896372 40.719854 -162.419568 -165.805947 54.407381 -157.55067 -1.055304 -3.120719 3.88782 89.026022 -20.647236 144.499441 -99.629835 -33.418945 106.882081 37.644581 38.354961 -20.47956 21.010221 26.490246 -2.845698 23.939847 0.069777 -18.381191 152.836019 0.777949 -124.8056 1.320297 12.200443 19.877469 6.274305 18.355384 2.166027 168.717177 1.211235 -131.042145 6.550565 -42.078454 5.803864 159.05183 -33.502115 -179.931882 54.617246 -44.043641 54.286801 150.284035 8.945038 149.217068 16.834735 -1.286125 8.295876 -58.3698 -43.846752 -170.536913 -55.728372 -32.696695 143.604138 -178.757251 -45.186379 39.341597 -178.103313 77.116882 -1.794232 -152.983147 73.065539 10.787169 40.25349 33.268598 -6.87876 -125.118857 -11.563939 -1.439238
45.307700000000004 70.0862 37.022800000000004 171.810103 74.44058 169.314072 -8.803887 8.676854 -174.137222 -1.058859 5.609374 177.189875 -16.67897 27.029334 -88.498603 38.255888 14.489422 52.343968 8.530802 -0.850646 -11.368109 18.978738 -2.815876 -16.72972 6.920311 -33.684584 -0.824969 -105.707543 17.426929 96.713531 27.892334 39.981901 -143.079628 159.077786 -19.516487 139.003624 -159.891949 16.154517 89.241998 -178.908803 -17.075035 92.824714 163.907568 -69.475714 108.337716 -12.471369 43.010128 -6.002692 -156.008869 5.967521 127.038538 -179.815045 -24.971351 123.866114 -150.5674 -1.479141 -176.070649 -121.363127 -49.814136 -146.2874 -13.553165 -28.717417 -2.429299 42.017613 72.387245 0.993818 4.929005 -66.773719 24.016827 64.470718 -22.143925 69.502345 173.134512 3.527749 76.166494 7.399277 -39.150265 5.945169 3.000586 5.601942 5.958334 177.384685 -59.935396 -101.226848 19.164083 20.83682 -1.894518 -130.502414 -47.438671 -72.031485 2.195753 -7.977409 7.390561 -4.910231 -3.797867 -13.749519 4.767914 -6.978058 -3.193983 161.028446 3.107992 -171.935415 112.681896 -24.080908 112.202319 140.544891 33.473116 158.816945 6.168156 -1.697188 -0.406891 -42.96416 -48.494747 -135.300794 -69.615587 -6.138843 -138.289489 38.994426 52.671433 -125.699468 -174.512674 76.32734 -5.18147 -143.180024 71.26765 -158.399797 -40.493877 -26.432862 78.132179 -42.407216 -89.215355 39.323809
45.8382 69.8754 38.0481 171.95037 75.026808 169.581808 -7.154615 10.41085 -105.58957 7.560966 1.64464 108.69995 6.008592 28.067877 114.218854 -33.523034 21.480265 -143.806261 9.970452 -0.482841 -5.531071 16.132531 -2.174445 -15.254292 5.261417 -24.925691 -0.514139 86.200147 -28.130745 93.272237 16.852019 61.417554 79.68391 -7.704921 53.929014 -3.674791 -4.82373 -7.489064 -4.736643 -122.07694 -19.456184 104.296265 -95.933706 41.088456 80.823008 -1.912834 3.719246 9.242279 8.008935 -18.658142 13.036983 -106.505817 -80.9904 -134.433751 -5.78811 8.076676 -0.043408 49.652536 -75.113008 38.5312 -132.64585 76.175572 174.247368 -165.302928 60.105968 -153.016904 -2.501436 -25.573035 8.532236 80.419406 -25.482492 115.580968 170.566512 2.869482 75.698404 6.495104 -41.959083 5.91 -127.627821 -54.760694 -67.480505 -4.285212 -59.369719 15.852629 -84.574398 -82.237392 -42.696383 -156.669819 -67.046248 -82.811972 -0.047324 -34.164926 11.246312 -3.104051 16.042036 -15.069866 149.111369 7.39761 -174.366473 151.598224 16.677756 -179.789414 4.745462 -13.892244 17.706367 14.906061 -12.153725 4.233484 15.300304 -0.115996 8.196525 -59.507715 -42.01574 -157.963516 -70.511957 -27.46613 -47.647111 -79.143208 49.069753 170.828461 0.642183 -0.12012 1.386888 9.839779 0.97353 87.679207 56.742476 1.7296 83.876154 -77.039187 -25.106061 -164.498135
46.4244 69.6969 39.091300000000004 171.590809 75.725095 169.466745 -8.006562 12.57157 -46.361496 7.568247 -7.15234 50.827102 -13.215622 20.621996 -45.576852 31.326632 -12.230791 14.048816 10.29364 -0.201277 -2.234356 14.241462 -1.847464 -14.70867 -139.17031 39.415288 142.880899 -156.15066 -15.020042 -128.481632 170.75631 28.885769 59.541522 156.828637 -26.405427 135.595131 -4.66471 -7.135397 -4.564863 -46.887661 20.386903 48.630915 -168.413969 -49.492348 123.32563 0.703812 11.602048 -15.624022 -65.027278 43.767385 57.086892 -37.13479 65.354148 52.264014 -5.747155 -0.663936 -2.712569 23.065206 -49.541486 15.982294 -147.890793 53.171748 -161.446784 -161.621465 25.857645 -140.848343 -0.688695 0.34768 2.392804 -78.470146 15.14624 34.482557 -171.973941 -0.795381 -36.523678 145.716526 38.519071 -126.721898 -9.384298 -11.778702 7.271424 67.598456 25.584887 -51.366659 -72.012485 -80.693047 -30.09664 172.139264 -46.623827 -105.776957 161.523991 19.142203 -144.873737 171.39167 -73.615345 -166.193827 7.000911 -34.697602 9.618521 160.563449 -36.842803 -171.78901 31.159407 -33.971991 38.810134 -2.699394 60.808114 -18.239272 174.766826 76.230546 6.452421 154.369107 17.564618 -98.837031 -59.754146 -15.294039 88.300038 -165.058348 -37.925688 0.884296 25.595173 4.892765 20.584106 -12.388168 2.404531 -92.518751 -53.183157 7.692613 -65.736539 94.373412 17.075881 162.092971
46.948299999999996 69.54780000000001 40.1453 170.389114 76.457326 168.690787 -7.788642 9.73168 -114.348559 7.585323 2.730916 118.728163 -14.572776 27.171639 -82.31457 39.514295 8.521783 44.660911 9.275175 -0.091965 -1.133673 13.079495 -1.648758 -14.308415 -4.972074 21.252239 8.486353 128.731927 -14.889445 149.714898 176.612852 -69.342614 48.363491 152.103632 -35.362651 131.043191 -44.693848 30.100938 11.190741 -70.159586 -1.080419 58.808549 28.660965 -50.478295 -6.665793 5.956434 32.776622 -2.773386 -157.065255 2.431994 124.895472 10.960689 -10.215808 21.728747 -5.552283 2.856563 -1.451225 -140.943289 41.597699 144.463889 -145.802538 17.048354 -148.740377 -29.153168 -29.327773 -31.293857 154.92211 -3.602142 -163.515361 78.544016 13.839896 -43.063167 -25.58991 -30.565572 132.157091 138.021194 44.780457 -119.406778 7.293701 9.752161 4.238771 -113.89245 -75.353709 -49.618265 117.133323 38.22566 -95.863428 -14.849619 -29.966687 15.072545 168.817526 -13.857214 -151.709099 154.107979 -71.633384 -175.757519 3.900177 -3.167937 0.110136 -8.073517 -43.139291 2.268709 -6.946434 8.719769 7.84177 29.525356 -31.540738 25.865739 167.977207 75.997649 10.243973 155.492723 17.354368 158.789197 58.592094 -56.032608 117.926434 -155.654185 61.491877 -129.042833 -6.121605 0.140449 -3.53086 16.83769 4.046673 88.534866 41.313464 7.208371 -114.11474 114.520831 46.203032 -26.350277
47.3569 69.4454 41.2193 169.172033 76.989214 167.912391 -7.965583 11.766094 -60.098641 8.626538 -5.792918 65.439908 -14.393456 25.953851 -74.214192 39.338153 3.62753 37.91498 7.507004 -0.102994 -1.569824 12.385782 -1.553868 -14.247161 8.321753 -71.107222 -10.778957 -48.914763 32.912657 102.845327 -14.281975 -55.387655 75.756366 -2.265905 33.731755 -4.960534 153.544926 -33.942403 87.043118 -21.082895 -46.848166 -28.855652 22.839459 -42.286893 -8.127503 -73.071307 56.671701 67.603548 -1.15216 -3.344928 16.029911 -145.083316 78.845353 143.049678 -6.346338 21.150597 4.879657 13.587445 -51.067741 9.507041 -112.111418 -45.864464 -109.708319 -126.379479 -5.4004 -129.815737 7.729772 -77.85564 28.049544 -160.438068 -9.356433 130.087439 -11.10997 -51.565698 -114.438973 9.942299 -30.608373 4.694636 -4.568752 -3.008836 6.598032 -97.457946 -78.383576 -37.838964 150.791118 -6.192091 -124.040138 -140.331767 -77.281752 -78.666743 169.555097 -23.909658 -153.043528 138.853092 -79.333171 171.200605 2.988311 5.843878 -1.570684 -2.243978 11.311843 -2.841938 155.268443 33.172778 135.388732 -10.878127 3.732834 -3.650031 178.84327 76.318391 0.547902 152.462315 17.855028 67.933963 71.481483 20.393514 61.795746 37.207473 39.16478 -140.295599 5.990833 0.528526 6.138076 5.179701 1.759818 111.568595 51.388497 -15.340191 108.891679 -82.071117 17.486627 -172.291805
47.5788 69.555 42.2757 166.566896 77.881415 166.153276 -10.322104 7.89083 175.562933 -1.860631 6.771214 -170.127633 5.07898 19.977123 59.61633 -30.334195 -10.422472 -99.791919 5.321051 -0.039034 -0.839989 12.482459 -1.487555 -13.539412 -156.969207 -19.438042 163.31204 -103.55646 -19.883378 -152.689041 28.985204 80.09109 -150.36472 155.541075 -31.294334 133.624681 -178.787951 -7.853262 92.209886 -21.044906 -48.748858 -13.415105 -147.866579 -10.977778 121.756983 -163.50479 1.477462 118.6164 -8.396855 7.10067 18.069276 -83.233284 -81.517905 -123.46524 -5.896869 2.275597 -0.682434 -147.873583 32.239102 153.600674 -21.518748 -37.705785 -17.614645 19.260819 33.342523 16.965086 156.702234 -17.186341 -164.766308 -113.321673 -14.84105 -150.88311 -176.017507 23.05506 -39.621482 149.132316 33.152353 -129.891028 131.516444 29.204327 -83.142594 148.233574 -12.979599 -84.944963 5.135823 0.292326 4.53537 172.62871 -11.913234 -104.325828 158.739308 22.688881 -144.396444 169.439088 -79.945869 -170.93052 4.766294 31.970397 -10.623753 121.685767 -82.380217 136.15617 113.748406 -31.328525 109.382323 150.500005 16.898439 149.987641 2.031363 -0.476952 2.370091 -45.39729 -49.614333 157.301154 -54.717487 -65.719296 -72.44386 -100.921524 3.926483 178.334163 1.409129 0.211914 2.915772 8.751565 2.20422 91.237771 53.780439 -3.074298 64.288774 134.216536 72.62607 124.79809
